<mxfile host="app.diagrams.net" modified="2023-04-24T03:29:00.347Z" agent="Mozilla/5.0 (X11; Linux x86_64; rv:109.0) Gecko/20100101 Firefox/112.0" etag="hzMi2sQkw-X057m59CYe" version="21.1.7" type="github">
  <diagram name="Page-1" id="KvL3jpzsEYVWvemKFwzc">
    <mxGraphModel dx="2199" dy="2317" grid="1" gridSize="10" guides="1" tooltips="1" connect="1" arrows="1" fold="1" page="1" pageScale="1" pageWidth="850" pageHeight="1100" math="0" shadow="0">
      <root>
        <mxCell id="0" />
        <mxCell id="1" parent="0" />
        <mxCell id="Ldkf10a5wtrMLSqoh3qG-15" style="edgeStyle=orthogonalEdgeStyle;rounded=0;orthogonalLoop=1;jettySize=auto;html=1;exitX=0;exitY=0.75;exitDx=0;exitDy=0;entryX=0.5;entryY=1;entryDx=0;entryDy=0;" edge="1" parent="1" source="Ldkf10a5wtrMLSqoh3qG-2" target="Ldkf10a5wtrMLSqoh3qG-12">
          <mxGeometry relative="1" as="geometry">
            <Array as="points">
              <mxPoint x="-570" y="620" />
            </Array>
          </mxGeometry>
        </mxCell>
        <mxCell id="Ldkf10a5wtrMLSqoh3qG-2" value="" style="rounded=1;whiteSpace=wrap;html=1;" vertex="1" parent="1">
          <mxGeometry x="-320" y="-70" width="1230" height="920" as="geometry" />
        </mxCell>
        <mxCell id="Ldkf10a5wtrMLSqoh3qG-4" value="&lt;div style=&quot;font-size: 24px;&quot;&gt;Lawn Mower&lt;b&gt;&lt;br&gt;&lt;/b&gt;&lt;/div&gt;" style="text;html=1;strokeColor=none;fillColor=none;align=center;verticalAlign=middle;whiteSpace=wrap;rounded=0;" vertex="1" parent="1">
          <mxGeometry x="125" width="340" height="30" as="geometry" />
        </mxCell>
        <mxCell id="Ldkf10a5wtrMLSqoh3qG-7" value="" style="endArrow=none;html=1;rounded=0;entryX=1;entryY=0.174;entryDx=0;entryDy=0;exitX=0.002;exitY=0.169;exitDx=0;exitDy=0;startFill=1;snapToPoint=0;noJump=1;exitPerimeter=0;entryPerimeter=0;" edge="1" parent="1" source="Ldkf10a5wtrMLSqoh3qG-2" target="Ldkf10a5wtrMLSqoh3qG-2">
          <mxGeometry width="50" height="50" relative="1" as="geometry">
            <mxPoint x="320" y="170" as="sourcePoint" />
            <mxPoint x="370" y="120" as="targetPoint" />
          </mxGeometry>
        </mxCell>
        <mxCell id="Ldkf10a5wtrMLSqoh3qG-8" value="East" style="rounded=1;whiteSpace=wrap;html=1;" vertex="1" parent="1">
          <mxGeometry x="-180" y="170" width="120" height="60" as="geometry" />
        </mxCell>
        <mxCell id="Ldkf10a5wtrMLSqoh3qG-9" value="West" style="rounded=1;whiteSpace=wrap;html=1;" vertex="1" parent="1">
          <mxGeometry x="110" y="170" width="120" height="60" as="geometry" />
        </mxCell>
        <mxCell id="Ldkf10a5wtrMLSqoh3qG-10" value="Southeast" style="rounded=1;whiteSpace=wrap;html=1;" vertex="1" parent="1">
          <mxGeometry x="425" y="170" width="120" height="60" as="geometry" />
        </mxCell>
        <mxCell id="Ldkf10a5wtrMLSqoh3qG-11" value="&lt;div&gt;SouthWest&lt;/div&gt;" style="rounded=1;whiteSpace=wrap;html=1;" vertex="1" parent="1">
          <mxGeometry x="710" y="170" width="120" height="60" as="geometry" />
        </mxCell>
        <mxCell id="Ldkf10a5wtrMLSqoh3qG-13" style="edgeStyle=orthogonalEdgeStyle;rounded=0;orthogonalLoop=1;jettySize=auto;html=1;exitX=0.5;exitY=0;exitDx=0;exitDy=0;entryX=0;entryY=0.25;entryDx=0;entryDy=0;" edge="1" parent="1" source="Ldkf10a5wtrMLSqoh3qG-12" target="Ldkf10a5wtrMLSqoh3qG-2">
          <mxGeometry relative="1" as="geometry">
            <Array as="points">
              <mxPoint x="-570" y="160" />
            </Array>
          </mxGeometry>
        </mxCell>
        <mxCell id="Ldkf10a5wtrMLSqoh3qG-12" value="Lawn Mower Deactivated" style="rounded=1;whiteSpace=wrap;html=1;" vertex="1" parent="1">
          <mxGeometry x="-630" y="370" width="120" height="60" as="geometry" />
        </mxCell>
      </root>
    </mxGraphModel>
  </diagram>
</mxfile>
